DataType=double
version=3
OpenSimVersion=4.5
endheader
time	ground_force_1_vx	ground_force_1_vy	ground_force_1_vz	ground_force_1_px	ground_force_1_py	ground_force_1_pz	ground_moment_1_mx	ground_moment_1_my	ground_moment_1_mz
2.03	-25.50687200866665	614.5836800387401	40.97815184291348	0.8012685044544051	0.006637299061187014	0.4071340666470176	0	-0.2811063735047938	0
2.035	-23.03222547452411	613.6890653812936	40.0207128476749	0.7964583693663452	0.006637299061187014	0.4073332318095923	0	-0.3255703714600928	0
2.04	-20.53887794352799	613.3038891525729	39.11677854695709	0.7915776112257645	0.006637299061187014	0.4075478526776943	0	-0.358906780064675	0
2.045	-18.02325912475498	613.3828890098325	38.27150755151949	0.7866315630845685	0.006637299061187014	0.4077748771345989	0	-0.3818465423020517	0
2.05	-15.48144333672819	613.8819103248397	37.48976732414106	0.7816255480184425	0.006637299061187014	0.4080115411904017	0	-0.3951746726578164	0
2.055	-12.90899620415805	614.7583960616117	36.77598596833082	0.7765648868541822	0.006637299061187014	0.4082554127039684	0	-0.3997181648999554	0
2.06	-10.30090471599391	615.9717267809617	36.13399190582258	0.7714549009733617	0.006637299061187014	0.4085044271747039	0	-0.3963357696828215	0
2.065	-7.651608842787114	617.4835240591609	35.56685659005477	0.7663008945218507	0.006637299061187014	0.4087569118578564	0	-0.3859097008283079	0
2.07	-4.955139698999753	619.2579960816054	35.0767543118455	0.7611081067350031	0.006637299061187014	0.4090115956410669	0	-0.3693392265748113	0
2.075	-2.205349636227486	621.2623476806112	34.66485026939915	0.755881634519862	0.006637299061187014	0.4092676041352128	0	-0.3475359091308831	0
2.08	0.6037982892446041	623.467219745542	34.33122465412096	0.7506263343951723	0.006637299061187014	0.4095244416180068	0	-0.321420014670812	0
2.085	3.477921724134852	625.8470849584395	34.07483801385337	0.7453467183409501	0.006637299061187014	0.4097819630677408	0	-0.2919173881450947	0
2.09	6.421929441919133	628.380516773204	33.89354149205113	0.7400468589636024	0.006637299061187014	0.4100403401117885	0	-0.2599559620286259	0
2.095	9.439782743006761	631.0502616618232	33.78413359442112	0.7347303165117836	0.006637299061187014	0.4103000243635995	0	-0.2264610899738239	0
2.1	12.53433290432619	633.8430693197085	33.74246226435758	0.7294000955511248	0.006637299061187014	0.4105617107163155	0	-0.1923490250964282	0
2.105	15.70725258272337	636.7492613654573	33.7635672778767	0.724058634222949	0.006637299061187014	0.4108263020860808	0	-0.1585180279593649	0
2.11	18.95907135005008	639.7620406085011	33.84185355469727	0.7187078248940356	0.006637299061187014	0.4110948760760954	0	-0.1258367453890377	0
2.115	22.28931701702446	642.8765590530045	33.97128123955296	0.7133490618684528	0.006637299061187014	0.4113686531305751	0	-0.09512963509127442	0
2.12	25.69675412131427	646.0887746957584	34.1455537582438	0.7079833095552363	0.006637299061187014	0.4116489649697554	0	-0.06715935855231303	0
2.125	29.17969641441952	649.3941368001315	34.35828152604708	0.7026111829951379	0.006637299061187014	0.4119372215139655	0	-0.04260634273037806	0
2.13	32.73635114287286	652.7861476854295	34.60309880649153	0.6972330321355678	0.006637299061187014	0.4122348743060646	0	-0.02204621372727916	0
2.135	36.36513679824237	656.2548552401499	34.87371651449574	0.6918490218788202	0.006637299061187014	0.4125433747412571	0	-0.005926394532200785	0
2.14	40.06491251259103	659.7853328535512	35.16390390287937	0.6864592014550669	0.006637299061187014	0.4128641260519238	0	0.005456455015922013	0
2.145	43.83506736089532	663.356202204751	35.4674038220079	0.6810635585904712	0.006637299061187014	0.4131984287139042	0	0.0119763919091736	0
2.15	47.67543479846019	666.9382506058322	35.77779669153538	0.6756620559749789	0.006637299061187014	0.4135474196466306	0	0.01369384244679578	0
2.155	51.58601596729914	670.4931898249446	36.08833634173408	0.6702546496118916	0.006637299061187014	0.413912006309446	0	0.01086533794295325	0
2.16	55.5665143546366	673.972598971202	36.3917864205111	0.6648412906584269	0.006637299061187014	0.4142927975815459	0	0.003945767565572855	0
2.165	59.61570372608853	677.3170916500289	36.68028946319414	0.6594219141942849	0.006637299061187014	0.4146900341536451	0	-0.006418384836930968	0
2.17	63.73067222981677	680.4557486045671	36.94530249459942	0.6539964198350534	0.006637299061187014	0.4151035220333219	0	-0.0194063064247092	0
2.175	67.90600726503442	683.3058620377599	37.17763262700316	0.648564650108886	0.006637299061187014	0.4155325736135652	0	-0.0340519436025345	0
2.18	72.13299898835039	685.7730437773573	37.36759812661217	0.6431263729092167	0.006637299061187014	0.4159759614619422	0	-0.0492855621723442	0
2.185	76.39892798122091	687.7517464136738	37.50531575707509	0.6376812739974533	0.006637299061187014	0.4164318904454954	0	-0.06398672027976632	0
2.19	80.68646300357022	689.1262247389221	37.58107590910744	0.6322289643253355	0.006637299061187014	0.4168979939810047	0	-0.0770450866813791	0
2.195	84.97315708180469	689.7719315940594	37.58573319033422	0.6267690045808166	0.006637299061187014	0.4173713599639257	0	-0.08742357753541258	0
2.2	89.23102364152709	689.5573208397693	37.51102899476565	0.6213009453316449	0.006637299061187014	0.4178485908144667	0	-0.09421798545875071	0
2.205	93.42619765360112	688.3460362455949	37.34977191266824	0.6158243754048748	0.006637299061187014	0.418325899541669	0	-0.09670848391983089	0
2.21	97.51872098873864	685.9994906934519	37.09582266897826	0.6103389654682874	0.006637299061187014	0.4187992398759481	0	-0.09440029017981938	0
2.215	101.4625201518272	682.37985604143	36.74386139778201	0.6048444924955475	0.006637299061187014	0.4192644645327768	0	-0.08705249586248692	0
2.22	105.2056571743928	677.3534579318307	36.28896099014568	0.5993408386594926	0.006637299061187014	0.4197175031090084	0	-0.07469480675086665	0
2.225	108.6909256528395	670.7944911194948	35.72605212776926	0.59382797530606	0.006637299061187014	0.4201545508741275	0	-0.05763136360526955	0
2.23	111.8568341745805	662.5888459027937	35.04943407181484	0.5883059616933324	0.006637299061187014	0.420572262943365	0	-0.03642968399037383	0
2.235	114.6389659538513	652.6376649720273	34.25253218553922	0.5827749992227989	0.006637299061187014	0.4209679578530217	0	-0.01189259900878192	0
2.24	116.9716273746095	640.8600798706282	33.32808040616418	0.577235579995133	0.006637299061187014	0.4213398496675668	0	0.0149868380336286	0
2.245	118.7896433928696	627.1946364074574	32.26879255550511	0.5716887517685674	0.006637299061187014	0.4216873302425468	0	0.04308337825070663	0
2.25	120.0302157707534	611.5996179730147	31.0684423352154	0.5661364798106261	0.006637299061187014	0.4220112710655954	0	0.07120325297728292	0
2.255	120.634929136865	594.0537281634099	29.72318911320794	0.5605820222023082	0.006637299061187014	0.4223142011976955	0	0.09814794660830917	0
2.26	120.5520548722667	574.5590217561208	28.2329734133657	0.5550302115031834	0.006637299061187014	0.4226001658953056	0	0.1227780917770392	0
2.265	119.7391132036747	553.1464712742699	26.60280702341374	0.5494876115688478	0.006637299061187014	0.4228741987377979	0	0.1440794896307988	0
2.27	118.1654331345825	529.8825826892535	24.84377881482339	0.5439626258723879	0.006637299061187014	0.4231415280468486	0	0.1612286916515724	0
2.275	115.8144548205558	504.8750594029977	22.97360684799913	0.5384656651733839	0.006637299061187014	0.4234066872671892	0	0.1736505700375648	0
2.28	112.685651996397	478.2762853164668	21.01659047258691	0.5330094504771125	0.006637299061187014	0.4236726296637081	0	0.1810592842528462	0
2.285	108.7960100712501	450.2839892716056	19.00284252505959	0.5276095035750797	0.006637299061187014	0.4239398882290004	0	0.1834752953070711	0
2.29	104.1809330478495	421.1385558890049	16.96673037664865	0.5222848835528626	0.006637299061187014	0.4242058061377825	0	0.1812129384778486	0
2.295	98.8942950468842	391.1163507506166	14.94458173773591	0.5170592539187773	0.006637299061187014	0.4244638695024653	0	0.1748363928540425	0
2.3	93.0072334973209	360.5186042476857	12.97193862511911	0.511962374447851	0.006637299061187014	0.4247032163304909	0	0.1650873488305114	0
2.305	86.60562633308977	329.6570374385836	11.0808863549107	0.5070319386543913	0.006637299061187014	0.4249085232949708	0	0.1527943703322891	0
2.31	79.78716402585891	298.8407988304557	9.298097408680853	0.5023151696422121	0.006637299061187014	0.4250605090816402	0	0.1387818243922481	0
2.315	72.65936639278952	268.3702147880799	7.644030608432182	0.4978692076226353	0.006637299061187014	0.4251369913652929	0	0.123800777141348	0
2.32	65.33866017302572	238.5373571397984	6.133188615031242	0.4937597935960442	0.006637299061187014	0.4251142386999361	0	0.1084938962911099	0
2.325	57.94909429135249	209.6270761813902	4.774883407668383	0.4900586093614829	0.006637299061187014	0.4249687228497659	0	0.09338686541131269	0
2.33	50.61950518174844	181.9130103813916	3.573990012399136	0.4868398304082814	0.006637299061187014	0.424679662698663	0	0.07889177309458417	0
2.335	43.47950793494527	155.6492822918243	2.531500185870575	0.4841761401059899	0.006637299061187014	0.4242322809704656	0	0.06531459001771855	0
